<svg xmlns="http://www.w3.org/2000/svg" viewBox="0 0 64 58" width="64" height="58" shape-rendering="crispEdges">
<rect x="55" y="18" width="2" height="12" fill="#FFFFFF"/>
<rect x="52" y="20" width="1" height="8" fill="#FFFFFF"/>
<rect x="49" y="22" width="1" height="3" fill="#FFFFFF"/>
<rect x="59" y="22" width="1" height="4" fill="#FFFFFF"/>
<rect x="4" y="3" width="2" height="4" fill="#FF8000"/>
<rect x="6" y="5" width="2" height="9" fill="#FF8000"/>
<rect x="8" y="7" width="3" height="7" fill="#FF8000"/>
<rect x="4" y="9" width="2" height="2" fill="#FF8000"/>
<rect x="11" y="10" width="1" height="6" fill="#FF8000"/>
<rect x="12" y="11" width="3" height="11" fill="#FF8000"/>
<rect x="4" y="14" width="2" height="3" fill="#FF8000"/>
<rect x="9" y="14" width="2" height="2" fill="#FF8000"/>
<rect x="15" y="14" width="2" height="13" fill="#FF8000"/>
<rect x="6" y="16" width="2" height="4" fill="#FF8000"/>
<rect x="17" y="16" width="4" height="11" fill="#FF8000"/>
<rect x="8" y="18" width="4" height="2" fill="#FF8000"/>
<rect x="21" y="18" width="4" height="17" fill="#FF8000"/>
<rect x="37" y="19" width="4" height="3" fill="#FF8000"/>
<rect x="9" y="20" width="3" height="2" fill="#FF8000"/>
<rect x="25" y="20" width="2" height="21" fill="#FF8000"/>
<rect x="35" y="20" width="2" height="17" fill="#FF8000"/>
<rect x="41" y="20" width="2" height="6" fill="#FF8000"/>
<rect x="13" y="22" width="2" height="5" fill="#FF8000"/>
<rect x="32" y="22" width="3" height="18" fill="#FF8000"/>
<rect x="37" y="22" width="2" height="13" fill="#FF8000"/>
<rect x="40" y="22" width="1" height="4" fill="#FF8000"/>
<rect x="43" y="22" width="2" height="3" fill="#FF8000"/>
<rect x="6" y="24" width="7" height="2" fill="#FF8000"/>
<rect x="27" y="24" width="2" height="17" fill="#FF8000"/>
<rect x="39" y="24" width="1" height="4" fill="#FF8000"/>
<rect x="45" y="24" width="2" height="1" fill="#FF8000"/>
<rect x="29" y="25" width="3" height="15" fill="#FF8000"/>
<rect x="11" y="26" width="2" height="1" fill="#FF8000"/>
<rect x="18" y="27" width="3" height="4" fill="#FF8000"/>
<rect x="12" y="29" width="6" height="2" fill="#FF8000"/>
<rect x="17" y="33" width="4" height="2" fill="#FF8000"/>
<rect x="23" y="35" width="2" height="8" fill="#FF8000"/>
<rect x="21" y="37" width="2" height="9" fill="#FF8000"/>
<rect x="19" y="40" width="2" height="9" fill="#FF8000"/>
<rect x="29" y="40" width="2" height="1" fill="#FF8000"/>
<rect x="17" y="41" width="2" height="6" fill="#FF8000"/>
<rect x="15" y="43" width="2" height="6" fill="#FF8000"/>
<rect x="14" y="44" width="1" height="8" fill="#FF8000"/>
<rect x="13" y="45" width="1" height="7" fill="#FF8000"/>
<rect x="11" y="46" width="2" height="3" fill="#FF8000"/>
<rect x="10" y="47" width="1" height="4" fill="#FF8000"/>
<rect x="9" y="48" width="1" height="3" fill="#FF8000"/>
<rect x="6" y="49" width="3" height="3" fill="#FF8000"/>
<rect x="11" y="49" width="1" height="2" fill="#FF8000"/>
<rect x="18" y="49" width="1" height="3" fill="#FF8000"/>
<rect x="4" y="50" width="2" height="2" fill="#FF8000"/>
<rect x="11" y="52" width="2" height="2" fill="#FF8000"/>
<rect x="17" y="52" width="1" height="2" fill="#FF8000"/>
</svg>
